# xmcd
#
# Track frame offsets:
#	150
#	19037
#	37175
#	52235
#	66853
#	83191
#	101040
#	114063
#	133065
#	148398
#	161380
#	176769
#	189265
#	202452
#
# Disc length: 2915 seconds
#
# Revision: 1
# Processed by: cddbd v1.5.1PL2 Copyright (c) Steve Scherf et al.
# Submitted via: EasyCDDAExtractor 9.1.2.1
#
DISCID=d20b610e
DTITLE=Various Artist - Mr. Music Country 2006-01
DYEAR=1900
DGENRE=Country
TTITLE0=Alan Jackson  - If French fries were fat free 
TTITLE1=Tobias Rene  - Mexico 
TTITLE2=Sara Evans  - Cheatin' 
TTITLE3=Brooks and Dunn  - Play something country 
TTITLE4=Mack Vickery  - The fireman 
TTITLE5=Lonestar  - Two bottles of beer 
TTITLE6=Charlee Laurewyn  - Guitar Town 
TTITLE7=Charlie Major  - Walk away 
TTITLE8=Phil Vassar  - Houston 
TTITLE9=Justin Trevino and Mona McCall  - Five minutes of the latest blues
TTITLE10=Kim Novas  - Blue skies over Georgia 
TTITLE11=Grand Ole Country  - The way it was in '51 
TTITLE12=Elizabeth McQueen  - You ain't nothin but fine 
TTITLE13=Billy Don Burns  - I was there 
EXTD=
EXTT0=
EXTT1=
EXTT2=
EXTT3=
EXTT4=
EXTT5=
EXTT6=
EXTT7=
EXTT8=
EXTT9=
EXTT10=
EXTT11=
EXTT12=
EXTT13=
PLAYORDER=
